<svg width="512" height="512" viewBox="0 0 512 512" fill="none" xmlns="http://www.w3.org/2000/svg">
<g clip-path="url(#clip0_322_2859)">
<path d="M384 0H128C57.3075 0 0 57.3075 0 128V384C0 454.692 57.3075 512 128 512H384C454.692 512 512 454.692 512 384V128C512 57.3075 454.692 0 384 0Z" fill="url(#paint0_radial_322_2859)"/>
<path d="M128 -0.5C128 -0.166667 128 0.166667 128 0.5C158.471 0.491667 188.943 0.483333 219.414 0.475C274.276 0.459996 329.138 0.444993 384 0.429989C451.95 -1.24263 513.259 60.018 511.625 128C511.648 213.333 511.672 298.667 511.695 384C513.369 452.016 452.049 513.385 384 511.75C298.667 511.773 213.333 511.797 128 511.82C59.9169 513.496 -1.51154 452.115 0.125 384C0.101663 298.667 0.0783259 213.333 0.0549888 128C-0.182918 91.3781 16.4214 55.1545 44.1794 31.2931C67.1466 11.2302 97.4817 -0.112815 128 0C97.4819 -0.129565 67.1338 11.1971 44.1466 31.2554C16.365 55.1104 -0.272967 91.3465 -0.0549888 128C-0.0783259 213.333 -0.101663 298.667 -0.125 384C-1.80409 452.246 59.7218 513.82 128 512.18C213.333 512.203 298.667 512.227 384 512.25C452.313 513.931 513.947 452.345 512.305 384C512.328 298.667 512.352 213.333 512.375 128C514.057 59.6207 452.412 -2.073 384 -0.429989C329.138 -0.444993 274.276 -0.459996 219.414 -0.475C188.943 -0.483333 158.471 -0.491667 128 -0.5ZM128 0.5V-0.5C127.9 -0.499973 128.1 -2.73481e-05 128 0C128.1 2.73481e-05 127.9 0.499973 128 0.5Z" fill="white" fill-opacity="0.11"/>
<path d="M265.742 111.516C265.331 111.776 264.251 112.036 263.377 112.036C262.554 112.036 261.372 112.401 260.806 112.817C260.292 113.234 259.418 113.598 258.904 113.598C256.385 113.65 243.12 123.854 243.12 125.78C243.12 126.04 242.554 127.029 241.835 127.966C241.115 128.904 240.549 129.841 240.549 130.049C240.549 130.257 240.241 130.83 239.881 131.246C239.521 131.715 238.904 133.12 238.544 134.422C238.184 135.723 237.567 137.441 237.156 138.326C236.025 140.773 235.459 155.141 235.408 181.795C235.408 195.07 235.254 206.575 235.099 207.304C234.123 211.781 230.164 216.779 225.845 219.017L222.812 220.579L181.167 220.892C156.437 221.1 138.596 221.412 137.208 221.724C135.049 222.193 134.02 222.609 130.524 224.171C128.005 225.264 121.167 229.689 119.779 231.095C117.517 233.438 114.278 238.071 112.787 241.142C112.015 242.704 111.193 244.422 110.936 244.891C110.679 245.411 110.473 246.348 110.473 247.025C110.473 247.702 110.216 248.483 109.856 248.847C108.262 250.461 107.954 262.174 108.005 321.313C108.005 353.537 108.211 380.087 108.417 380.4C108.622 380.66 108.931 381.493 109.085 382.222C109.959 386.335 112.735 390.864 116.129 393.779C118.185 395.601 124.252 398.881 125.537 398.881C125.897 398.881 126.463 399.141 126.771 399.453C127.491 400.182 276.59 400.182 278.03 399.453C278.595 399.141 279.572 398.881 280.24 398.881C280.909 398.881 281.886 398.516 282.4 398.1C282.965 397.683 283.839 397.319 284.354 397.319C285.587 397.319 292.271 393.154 295.253 390.499C297.875 388.157 301.371 383.055 303.274 378.838C306.461 371.758 306.513 371.342 306.821 341.095C307.181 311.318 307.078 312.463 310.317 307.726C313.402 303.249 316.898 300.906 322.451 299.5C324.045 299.136 331.603 298.928 344.302 298.876C367.232 298.824 376.744 298.147 378.44 296.429C378.8 296.064 379.314 295.804 379.674 295.804C381.319 295.804 388.209 291.015 391.756 287.475C398.749 280.447 402.193 273.575 403.479 264.048C404.353 257.957 404.044 127.29 403.17 124.374C402.45 121.876 399.16 117.034 397.001 115.212C396.127 114.483 394.481 113.442 393.402 112.869C392.322 112.349 391.037 111.724 390.574 111.464C389.289 110.787 266.719 110.891 265.742 111.516ZM300.909 221.1C301.68 221.516 302.657 221.881 302.965 221.881C303.994 221.881 306.718 225.108 308.107 227.919L309.443 230.574V260.717C309.443 292.264 309.495 291.223 307.181 296.481C306.256 298.563 302.451 303.092 301.629 303.092C301.32 303.092 300.446 303.561 299.623 304.134C295.973 306.789 294.122 306.945 266.256 306.945C237.053 306.945 238.441 307.101 234.585 302.988C231.089 299.188 231.141 299.969 231.089 266.703C230.986 234.479 231.038 233.958 233.66 229.637C234.894 227.659 239.418 223.442 240.344 223.442C240.601 223.442 241.115 223.182 241.475 222.818C241.783 222.505 243.171 221.829 244.508 221.308C246.719 220.475 249.547 220.423 273.197 220.371C295.51 220.319 299.623 220.423 300.909 221.1Z" fill="white"/>
</g>
<defs>
<radialGradient id="paint0_radial_322_2859" cx="0" cy="0" r="1" gradientUnits="userSpaceOnUse" gradientTransform="translate(256 256) scale(512)">
<stop stop-color="#222222"/>
<stop offset="1"/>
</radialGradient>
<clipPath id="clip0_322_2859">
<path d="M0 0H512V512H0V0Z" fill="white"/>
</clipPath>
</defs>
</svg>
